<?xml version="1.0" encoding="iso-8859-1"?>
<!-- Generator: Adobe Illustrator 22.0.1, SVG Export Plug-In . SVG Version: 6.00 Build 0)  -->
<svg version="1.1" id="Layer_1_1_" xmlns="http://www.w3.org/2000/svg" xmlns:xlink="http://www.w3.org/1999/xlink" x="0px" y="0px"
	 viewBox="0 0 64 64" style="enable-background:new 0 0 64 64;" xml:space="preserve">
<g id="Guide">
</g>
<rect x="48" y="6" width="2" height="2"/>
<rect x="48" y="10" width="2" height="2"/>
<rect x="44" y="6" width="2" height="2"/>
<rect x="6" y="51" width="2" height="2"/>
<rect x="10" y="51" width="2" height="2"/>
<rect x="6" y="47" width="2" height="2"/>
<path fill="black" stroke="green" stroke-width="0.6px" d="M61,30h-7V3c0-0.553-0.447-1-1-1H12c-0.021,0-0.039,0.011-0.059,0.012c-0.09,0.005-0.178,0.023-0.263,0.052
	c-0.031,0.011-0.061,0.019-0.091,0.033c-0.106,0.049-0.208,0.11-0.294,0.196l-9,9c-0.086,0.086-0.147,0.187-0.196,0.293
	c-0.014,0.031-0.022,0.062-0.033,0.094c-0.029,0.084-0.046,0.17-0.052,0.259C2.011,11.96,2,11.979,2,12v45c0,0.553,0.447,1,1,1h35v3
	c0,0.553,0.447,1,1,1h22c0.553,0,1-0.447,1-1v-4c0-0.553-0.447-1-1-1h-1v-2c0-3.191-1.502-6.13-4.007-8
	C58.498,44.13,60,41.191,60,38v-2h1c0.553,0,1-0.447,1-1v-4C62,30.447,61.553,30,61,30z M11,5.414V11H5.414L11,5.414z M4,56V13h8
	c0.553,0,1-0.447,1-1V4h39v26h-9c0-8.271-6.729-15-15-15s-15,6.729-15,15s6.729,15,15,15c4.799,0,9.264-2.356,12.052-6.119
	c0.25,2.845,1.683,5.423,3.955,7.119C41.502,47.87,40,50.809,40,54v2h-1H4z M39,36h0.518C37.3,40.24,32.841,43,28,43
	c-7.168,0-13-5.832-13-13s5.832-13,13-13s13,5.832,13,13h-2c-0.553,0-1,0.447-1,1v4C38,35.553,38.447,36,39,36z M60,60H40v-2h1h4h10
	h4h1V60z M50,54.28L52.149,56h-4.299L50,54.28z M58,38c0,3.005-1.666,5.729-4.347,7.111c-0.333,0.171-0.542,0.515-0.542,0.889
	s0.209,0.718,0.542,0.889C56.334,48.271,58,50.995,58,54v2h-2.648L51,52.519V51h-2v1.519L44.648,56H42v-2
	c0-3.005,1.666-5.729,4.347-7.111c0.333-0.171,0.542-0.515,0.542-0.889s-0.209-0.718-0.542-0.889C43.666,43.729,42,41.005,42,38v-2
	h16V38z M60,34h-1H41.064H41h-1v-2h1.949H60V34z"/>
<path fill="black" stroke="green" stroke-width="0.1px" d="M49,43.414V45h2v-1.586l3.707-3.707c0.286-0.286,0.372-0.716,0.217-1.09C54.77,38.243,54.404,38,54,38h-8
	c-0.404,0-0.77,0.243-0.924,0.617c-0.155,0.374-0.069,0.804,0.217,1.09L49,43.414z M51.586,40L50,41.586L48.414,40H51.586z"/>
<rect fill="black" stroke="green" stroke-width="0.1px" x="49" y="47" width="2" height="2"/>
<path fill="black" stroke="green" stroke-width="0.1px" d="M26.248,33.603l-3.558-3.396l-1.381,1.447l4.265,4.069C25.768,35.908,26.017,36,26.265,36c0.256,0,0.512-0.098,0.707-0.293
	l9-9l-1.414-1.414L26.248,33.603z"/>
</svg>
